<?xml version="1.0" encoding="utf-8"?>
<!-- Generator: Adobe Illustrator 18.0.0, SVG Export Plug-In . SVG Version: 6.00 Build 0)  -->
<svg version="1.2" baseProfile="tiny" id="Layer_1" xmlns="http://www.w3.org/2000/svg" xmlns:xlink="http://www.w3.org/1999/xlink"
	 x="0px" y="0px" viewBox="0 135.1 612 521.8" xml:space="preserve">
<g>
	<g>
		<path d="M573.7,617V256.1h38.2v-121H0.1v121h38.2V617H0v39.9h612V617H573.7z M209.6,617h-53.7V390.1c31.7-4.5,55.8-19.2,77.6-32.5
			c23.8-14.5,44.3-27,72.5-27s48.7,12.5,72.5,27c21.8,13.2,45.9,27.9,77.6,32.5V617l0,0h-53.7 M533.8,617H496V351.6h-20
			c-30.7,0-53.1-13.6-76.8-28.1c-25.3-15.4-53.9-32.8-93.3-32.8s-68,17.4-93.3,32.8c-23.7,14.4-46.1,28.1-76.8,28.1h-20V617H78.2
			V256.1h455.6V617z M572,216.2H40V175h532V216.2z"/>
	</g>
</g>
<g>
	<path d="M352.8,448L232.3,568.7L299,606c4.2,2.3,9.3,2.4,13.5,0l67.2-37.4l-19.1-118.2C360,446.8,355.4,445.3,352.8,448z"/>
	<path d="M257.3,409.1l-20.1,128.4l50.2-89.6l-21.6-40.2C263.8,403.7,257.9,404.7,257.3,409.1z"/>
	<path d="M325.5,465.5l-15.4-29.4c-1.7-3.3-6.4-3.3-8.2,0L234.1,557L325.5,465.5z"/>
</g>
</svg>
