<?xml version="1.0" encoding="utf-8"?>
<!-- Generator: Adobe Illustrator 18.0.0, SVG Export Plug-In . SVG Version: 6.00 Build 0)  -->
<svg version="1.2" baseProfile="tiny" id="Layer_1" xmlns="http://www.w3.org/2000/svg" xmlns:xlink="http://www.w3.org/1999/xlink"
	 x="0px" y="0px" viewBox="0 135.1 612 521.8" xml:space="preserve">
<g>
	<g>
		<path d="M573.7,617V256.1h38.2v-121H0.1v121h38.2V617H0v39.9h612V617H573.7z M209.6,617h-53.7V390.1c31.7-4.5,55.8-19.2,77.6-32.5
			c23.8-14.5,44.3-27,72.5-27s48.7,12.5,72.5,27c21.8,13.2,45.9,27.9,77.6,32.5V617l0,0h-53.7 M533.8,617H496V351.6h-20
			c-30.7,0-53.1-13.6-76.8-28.1c-25.3-15.4-53.9-32.8-93.3-32.8s-68,17.4-93.3,32.8c-23.7,14.4-46.1,28.1-76.8,28.1h-20V617H78.2
			V256.1h455.6V617z M572,216.2H40V175h532V216.2z"/>
	</g>
</g>
<g>
	<rect x="155.9" y="390.1" width="300.2" height="226.9"/>
	<rect x="155.9" y="355" width="300.2" height="41"/>
	<rect x="231" y="324" width="147.5" height="33.6"/>
</g>
<g>
	<path d="M191.5,396v226.5H418V396H191.5z M254.8,409.4c0.7-4.5,6.7-5.5,8.8-1.5l22.1,41.2L234.2,541L254.8,409.4z M300.6,437.2
		c1.8-3.4,6.6-3.4,8.4,0l15.8,30.1l-93.6,93.8L300.6,437.2z M311.4,611.3c-4.3,2.4-9.5,2.4-13.8,0L229.3,573l123.4-123.7
		c2.7-2.7,7.4-1.2,8,2.6L380.3,573L311.4,611.3z"/>
	<path fill="#FFFFFF" d="M352.7,449.3L229.3,573l68.3,38.3c4.3,2.4,9.5,2.4,13.8,0l68.9-38.3l-19.6-121.1
		C360.1,448.1,355.4,446.6,352.7,449.3z"/>
	<path fill="#FFFFFF" d="M263.6,407.9c-2.1-4-8.1-3-8.8,1.5L234.2,541l51.5-91.9L263.6,407.9z"/>
	<path fill="#FFFFFF" d="M308.9,437.2c-1.8-3.4-6.6-3.4-8.4,0L231,561.1l93.6-93.8L308.9,437.2z"/>
</g>
</svg>
