<?xml version="1.0" encoding="utf-8"?>
<!-- Generator: Adobe Illustrator 18.0.0, SVG Export Plug-In . SVG Version: 6.00 Build 0)  -->
<svg version="1.2" baseProfile="tiny" id="Layer_1" xmlns="http://www.w3.org/2000/svg" xmlns:xlink="http://www.w3.org/1999/xlink"
	 x="0px" y="0px" viewBox="0 135.1 612 521.8" xml:space="preserve">
<g>
	<g>
		<path fill="#FFFFFF" d="M573.7,617V256.1h38.2v-121H0.1v121h38.2V617H0v39.9h612V617H573.7z M209.6,617h-53.7V390.1
			c31.7-4.5,55.8-19.2,77.6-32.5c23.8-14.5,44.3-27,72.5-27s48.7,12.5,72.5,27c21.8,13.2,45.9,27.9,77.6,32.5V617l0,0h-53.7
			 M533.8,617H496V351.6h-20c-30.7,0-53.1-13.6-76.8-28.1c-25.3-15.4-53.9-32.8-93.3-32.8s-68,17.4-93.3,32.8
			c-23.7,14.4-46.1,28.1-76.8,28.1h-20V617H78.2V256.1h455.6V617z M572,216.2H40V175h532V216.2z"/>
	</g>
</g>
<path fill="#FFFFFF" d="M246.2,545.9l17.4-111.5c0.6-3.8,5.7-4.7,7.5-1.3l18.7,35L246.2,545.9z M370,573l-16.6-102.7
	c-0.5-3.2-4.5-4.5-6.8-2.2L242,573l57.9,32.5c3.6,2,8.1,2,11.7,0L370,573z M322.9,483.4l-13.4-25.5c-1.5-2.9-5.6-2.9-7.1,0
	l-58.9,105L322.9,483.4z"/>
<line fill="none" x1="209.6" y1="617" x2="402.4" y2="617"/>
</svg>
